<svg width="88" height="88" viewBox="0 0 88 88" fill="none" xmlns="http://www.w3.org/2000/svg">
<path fill-rule="evenodd" clip-rule="evenodd" d="M20.4047 12.9633C22.073 12.2723 23.861 11.9167 25.6666 11.9167C27.4723 11.9167 29.2603 12.2723 30.9285 12.9633C32.5968 13.6543 34.1125 14.6671 35.3893 15.9439C36.6662 17.2207 37.679 18.7365 38.37 20.4048C39.061 22.073 39.4166 23.861 39.4166 25.6667C39.4166 27.4723 39.061 29.2603 38.37 30.9286C37.679 32.5968 36.6662 34.1126 35.3893 35.3894C34.1125 36.6662 32.5968 37.679 30.9285 38.37C29.2603 39.061 27.4723 39.4167 25.6666 39.4167C23.861 39.4167 22.073 39.061 20.4047 38.37C18.7365 37.679 17.2207 36.6662 15.9439 35.3894C14.6671 34.1126 13.6543 32.5968 12.9633 30.9286C12.2723 29.2603 11.9166 27.4723 11.9166 25.6667C11.9166 23.861 12.2723 22.073 12.9633 20.4048C13.6543 18.7365 14.6671 17.2207 15.9439 15.9439C17.2207 14.6671 18.7365 13.6543 20.4047 12.9633ZM25.6666 17.4167C24.5832 17.4167 23.5104 17.63 22.5095 18.0447C21.5086 18.4593 20.5991 19.0669 19.833 19.833C19.0669 20.5991 18.4592 21.5086 18.0446 22.5095C17.63 23.5105 17.4166 24.5833 17.4166 25.6667C17.4166 26.7501 17.63 27.8229 18.0446 28.8238C18.4592 29.8247 19.0669 30.7342 19.833 31.5003C20.5991 32.2664 21.5086 32.8741 22.5095 33.2887C23.5104 33.7033 24.5832 33.9167 25.6666 33.9167C26.75 33.9167 27.8228 33.7033 28.8238 33.2887C29.8247 32.8741 30.7342 32.2664 31.5003 31.5003C32.2663 30.7342 32.874 29.8247 33.2886 28.8238C33.7032 27.8229 33.9166 26.7501 33.9166 25.6667C33.9166 24.5833 33.7032 23.5105 33.2886 22.5095C32.874 21.5086 32.2663 20.5991 31.5003 19.833C30.7342 19.0669 29.8247 18.4593 28.8238 18.0447C27.8228 17.63 26.75 17.4167 25.6666 17.4167ZM48.5833 14.6667C48.5833 13.1479 49.8145 11.9167 51.3333 11.9167H73.3333C74.8521 11.9167 76.0833 13.1479 76.0833 14.6667V36.6667C76.0833 38.1854 74.8521 39.4167 73.3333 39.4167H51.3333C49.8145 39.4167 48.5833 38.1854 48.5833 36.6667V14.6667ZM54.0833 17.4167V33.9167H70.5833V17.4167H54.0833ZM11.9166 51.3333C11.9166 49.8145 13.1478 48.5833 14.6666 48.5833H36.6666C38.1854 48.5833 39.4166 49.8145 39.4166 51.3333V73.3333C39.4166 74.8521 38.1854 76.0833 36.6666 76.0833H14.6666C13.1478 76.0833 11.9166 74.8521 11.9166 73.3333V51.3333ZM17.4166 54.0833V70.5833H33.9166V54.0833H17.4166ZM52.6106 52.6106C55.1892 50.032 58.6866 48.5833 62.3333 48.5833C65.98 48.5833 69.4774 50.032 72.056 52.6106C74.6346 55.1892 76.0833 58.6866 76.0833 62.3333C76.0833 65.9801 74.6346 69.4774 72.056 72.056C69.4774 74.6347 65.98 76.0833 62.3333 76.0833C58.6866 76.0833 55.1892 74.6347 52.6106 72.056C50.0319 69.4774 48.5833 65.9801 48.5833 62.3333C48.5833 58.6866 50.0319 55.1892 52.6106 52.6106ZM62.3333 54.0833C60.1453 54.0833 58.0468 54.9525 56.4997 56.4997C54.9525 58.0469 54.0833 60.1453 54.0833 62.3333C54.0833 64.5214 54.9525 66.6198 56.4997 68.167C58.0468 69.7141 60.1453 70.5833 62.3333 70.5833C64.5213 70.5833 66.6198 69.7141 68.1669 68.167C69.7141 66.6198 70.5833 64.5214 70.5833 62.3333C70.5833 60.1453 69.7141 58.0469 68.1669 56.4997C66.6198 54.9525 64.5213 54.0833 62.3333 54.0833Z" fill="#1B1C20"/>
</svg>
