<svg width="50" height="55" viewBox="0 0 50 55" fill="none" xmlns="http://www.w3.org/2000/svg">
<path d="M49.3908 52.5089C49.3437 52.4349 49.2832 52.3677 49.2967 52.2668C49.3303 52.1659 49.2698 52.1188 49.189 52.0852C49.1756 52.0784 49.1621 52.0784 49.142 52.0717C49.0209 51.9574 48.9267 51.8094 48.7787 51.7287C48.3415 51.4798 48.0321 51.1032 47.7227 50.7265C47.6958 50.6996 47.6689 50.6861 47.6353 50.6727C47.1376 50.6189 46.6802 50.7937 46.2094 50.9014C46.1825 50.9148 46.1488 50.9283 46.1219 50.9417C45.7924 50.935 45.4964 51.0628 45.2072 51.1973C45.1332 51.1906 45.0659 51.204 45.0121 51.2646C44.9247 51.4193 44.7296 51.4664 44.6287 51.6211C44.4606 51.8968 44.5951 52.2466 44.8911 52.2869C45.4628 52.3609 46.0345 52.4349 46.6129 52.4349C46.7542 52.5425 46.9223 52.5896 47.0972 52.6367C47.716 52.8049 48.3348 52.9596 48.9671 53.0739C49.1285 53.1008 49.3303 53.1882 49.4581 52.9999C49.5792 52.825 49.4917 52.6636 49.3908 52.5089Z" fill="#7CB165"/>
<path d="M39.7187 50.713C39.6447 50.8005 39.7052 50.8879 39.7994 50.9283C39.8801 50.9619 39.9676 50.9552 40.0348 50.861C40.1761 50.6794 40.1357 50.5516 39.9003 50.4978C39.8734 50.4911 39.8532 50.4373 39.833 50.4036C39.6581 50.4507 39.7994 50.6189 39.7187 50.713Z" fill="#1B161C"/>
<path d="M49.68 53.0403C49.5859 52.7712 49.5657 52.4551 49.2967 52.2668C49.2159 52.3946 49.2967 52.5022 49.337 52.6165C49.4446 52.9259 49.3572 53.0403 49.0276 52.9797C48.207 52.8385 47.3932 52.6703 46.6129 52.3609C46.0816 52.3138 45.5435 52.3071 45.0189 52.1995C44.8843 52.1726 44.7498 52.1726 44.7027 52.0112C44.6489 51.8363 44.6758 51.6816 44.8238 51.5605C44.9112 51.4865 45.0458 51.4327 45.0189 51.2713C44.9247 51.2175 44.8574 51.3991 44.77 51.3117C45.1467 50.3027 45.3955 49.2669 45.6713 48.2446C45.9134 47.3365 46.1825 46.4218 46.2632 45.4734C46.3103 44.9219 46.4448 44.3838 46.4919 43.8322C46.5659 43.0049 46.5659 42.1709 46.3641 41.357C46.2363 40.8257 46.1623 40.2741 45.7991 39.7764C45.7116 39.9984 45.678 40.1732 45.8529 40.3347C45.9807 40.449 46.0412 40.6104 46.0816 40.7719C46.1287 40.9602 45.9941 40.9131 45.8933 40.9131C45.8731 41.1956 45.7251 41.4646 45.9471 41.7606C46.0345 41.8749 45.9067 42.1305 45.8865 42.3189C45.8529 42.6619 45.7789 42.9377 46.1556 43.126C46.2094 43.1529 46.2363 43.2538 46.2565 43.3278C46.2699 43.3749 46.2363 43.4421 46.169 43.4488C46.0883 43.4623 46.0749 43.4018 46.0883 43.3412C46.1152 43.1865 46.021 43.1798 45.9067 43.1933C45.7655 43.2067 45.8125 43.3076 45.8058 43.395C45.7924 43.7515 45.7924 44.108 45.6982 44.4645C45.6713 44.5654 45.8058 44.6595 45.7453 44.7873C45.5906 44.7941 45.53 44.7066 45.5368 44.5654C45.6377 43.3816 45.6713 42.1911 45.6982 41.0005C45.6982 40.9736 45.7318 40.9467 45.752 40.9131C45.7722 40.8189 45.8058 40.718 45.8125 40.6239C45.8125 40.5701 45.8462 40.4826 45.752 40.4625C45.6646 40.4423 45.7184 40.6037 45.6242 40.5768C45.5704 40.2607 45.5569 39.958 45.604 39.6419C45.6309 39.4804 45.6108 39.2854 45.4561 39.1912C45.2946 39.0971 45.1332 39.1643 45.0121 39.3123C44.9381 39.3997 44.8036 39.4199 44.7565 39.3392C44.6691 39.1912 44.5278 39.2181 44.4404 39.2383C44.0503 39.3257 43.6669 39.4603 43.2768 39.5544C43.0683 39.6082 42.7656 39.7024 42.6714 39.4872C42.5571 39.2383 42.5369 39.3863 42.436 39.4603C42.2477 39.6015 42.0526 39.7966 41.8038 39.7226C41.5684 39.6553 41.38 39.5477 41.3935 39.9244C41.3935 39.9378 41.3464 39.9445 41.3397 39.958C41.2993 40.0589 40.7814 39.9244 41.185 40.2539C41.1581 40.2876 41.1379 40.3347 41.1043 40.3481C41.0168 40.3885 40.9227 40.4221 40.8285 40.4557C41.0505 40.4759 41.1244 40.6239 41.0975 40.7988C41.0505 41.088 41.4338 41.3705 41.1177 41.6664C41.111 41.6732 41.1581 41.7202 41.1648 41.7471C41.2321 42.1305 41.1783 42.2583 40.8823 42.4736C40.8419 42.5005 40.8285 42.5475 40.8823 42.5745C41.0505 42.6686 40.9025 42.7964 40.8958 42.8973C40.8823 43.1125 40.5931 43.3143 40.8823 43.543C40.8958 43.5497 40.8756 43.6035 40.8689 43.6372C40.7007 44.0744 40.5864 44.525 40.4787 44.9891C40.3106 45.7021 40.2904 46.4218 40.1559 47.128C40.0684 47.5719 40.0415 48.0226 39.8263 48.4463C39.6043 48.8768 39.5236 49.3544 39.5573 49.8521C39.3757 49.9933 39.3622 50.2086 39.3084 50.4104C39.2882 50.4911 39.3084 50.5718 39.4227 50.5516C39.5169 50.5314 39.4967 50.4911 39.4967 50.3969C39.4967 50.2153 39.5102 49.9799 39.8196 50.0673C39.8196 50.0875 39.8263 50.101 39.8398 50.1144C39.8465 50.2019 39.7254 50.2893 39.8263 50.3835C40.1693 50.4574 39.8936 50.1951 39.9608 50.1211C39.7254 49.8252 40.0752 49.6032 40.0348 49.3006C40.1761 49.3745 40.3442 49.5763 40.3846 49.388C40.4384 49.1391 40.4855 48.8499 40.4451 48.6212C40.3913 48.3185 40.4115 48.0428 40.472 47.7603C40.6469 46.9464 40.8756 46.1393 41.0101 45.3187C41.0706 44.9622 41.2657 44.9219 41.4877 44.9488C42.0728 45.0295 42.6513 44.9151 43.2364 45.0093C43.7409 45.09 44.2521 44.9353 44.7633 45.0026C45.2274 45.0631 45.2274 45.0497 45.2005 45.507C45.2005 45.5743 45.2072 45.6416 45.2206 45.7021C45.2408 45.8097 45.2274 45.9442 45.1332 45.9644C44.9516 46.0048 44.9987 46.1258 44.9987 46.2335C44.9583 47.1886 44.8036 48.1235 44.6691 49.0651C44.5009 50.1884 44.1714 51.2713 43.9225 52.3744C43.8754 52.5829 43.8014 52.778 43.6131 52.9125C43.5526 52.9596 43.4449 52.9865 43.4786 53.0806C43.5391 53.2488 43.6131 53.0672 43.6871 53.0739C43.7947 53.0806 43.9023 53.0874 43.9696 53.1613C44.2992 53.5313 44.7364 53.7129 45.1937 53.8676C45.7856 54.0626 46.3641 54.3989 47.0098 54.0357C47.0367 54.0223 47.0905 54.0156 47.1039 54.029C47.3259 54.2173 47.5882 54.1232 47.8371 54.1501C48.3281 54.2039 48.8057 54.1433 49.2563 53.955C49.8953 53.6994 49.902 53.6792 49.68 53.0403ZM41.8307 41.5655C41.8912 41.162 41.9921 40.7651 42.0796 40.3683C42.1065 40.2405 42.1266 40.0925 42.315 40.0992C42.389 40.3078 42.4024 40.5163 42.3217 40.7248C42.0795 40.792 42.1065 41.0005 42.1132 41.1754C42.1266 41.5655 41.9719 41.9086 41.8172 42.2583C41.7231 42.0162 41.7971 41.7875 41.8307 41.5655ZM41.6222 44.673C41.4607 44.6595 41.1581 44.8412 41.1379 44.5519C41.1244 44.4107 41.4473 44.5183 41.6087 44.4578C42.2141 44.2223 42.8194 44.4309 43.418 44.4847C43.6266 44.5048 43.8216 44.3501 44.0301 44.4712C44.0907 44.5048 44.1579 44.5116 44.1714 44.599C43.3306 44.7268 42.4764 44.7403 41.6222 44.673ZM45.1668 44.6528C45.0256 44.7806 44.965 44.8882 44.7834 44.7403C44.548 44.5587 44.8373 44.5317 44.8642 44.4241C44.8709 44.3905 44.8843 44.3636 44.8911 44.33C45.0659 44.3165 45.0928 44.0946 45.261 44.0744C45.2543 44.2694 45.3821 44.4578 45.1668 44.6528ZM45.4291 46.785C45.4897 46.489 45.5099 46.1931 45.5502 45.8971C45.6511 45.877 45.6713 45.9375 45.678 46.0115C45.6915 46.3276 45.4628 46.6303 45.6511 46.9531C45.678 46.9935 45.6242 47.0271 45.5771 47.0406C45.483 47.0608 45.4157 47.1415 45.4561 47.2087C45.6982 47.6392 45.187 47.9688 45.2946 48.3791C45.1265 47.8275 45.3215 47.3096 45.4291 46.785Z" fill="#1B161C"/>
<path d="M47.6891 50.7803C47.6891 50.7668 47.6891 50.7534 47.6824 50.7399C47.5815 50.6054 47.3595 50.8207 47.2856 50.6054C47.8371 50.4709 48.2138 50.7332 48.5433 51.1301C48.7855 51.426 49.0814 51.6883 49.1823 52.0784L49.1689 52.0717C48.6308 51.695 48.1465 51.2511 47.6891 50.7803Z" fill="#1B161C"/>
<path d="M45.3148 40.375C45.3148 40.3414 45.3215 40.301 45.3215 40.2674C45.3283 40.0522 45.409 39.8302 45.2475 39.6284C44.8776 39.5881 44.5211 39.6351 44.1781 39.7697C43.5324 39.7495 42.9136 39.8638 42.315 40.0925C42.2746 40.301 42.2679 40.5095 42.3217 40.718C42.3822 41.3436 42.1334 41.9018 41.9518 42.4736C41.8307 42.8637 41.5549 43.2 41.5953 43.6372C41.7163 43.8255 41.9181 43.7919 42.0795 43.7582C42.4831 43.6843 42.8732 43.765 43.2633 43.7852C43.4988 43.7582 43.6736 43.96 43.909 43.9398C44.1983 44.1618 44.5682 44.1685 44.8843 44.3232C45.113 44.3905 45.1534 44.182 45.2543 44.0676C45.3215 43.3076 45.2946 42.5408 45.3148 41.7808C45.3955 41.3167 45.261 40.8458 45.3148 40.375Z" fill="#E42719"/>
<path d="M35.414 39.5813C35.2458 39.5477 35.0373 39.5074 34.8288 39.4737C34.7077 39.4536 34.5732 39.393 34.4723 39.4199C34.0082 39.5679 33.5845 39.3728 33.1473 39.2787C32.8042 39.2047 32.4545 39.2787 32.1182 39.1711C31.8559 39.0836 31.6406 38.9424 31.5935 38.6666C31.5599 38.4581 31.4388 38.2496 31.8895 38.1689C32.5823 38.0478 33.2414 38.1016 33.9006 38.2429C34.5329 38.3774 35.1853 38.3505 35.8108 38.5523C36.0933 38.6464 36.3287 38.7473 36.3153 39.0702C36.3018 39.3997 36.0395 39.5006 35.757 39.5343C35.6561 39.5477 35.5552 39.5612 35.414 39.5813Z" fill="#1B161C"/>
<path d="M37.2098 47.6459C37.3309 47.4105 37.2973 47.1684 37.2838 46.9128C37.2502 46.1931 37.2637 45.4667 37.2637 44.747C37.2435 44.7537 37.2166 44.7604 37.1964 44.7739C36.8399 44.5721 36.4834 44.6057 36.1269 44.7537C35.905 44.7604 35.683 44.7066 35.4611 44.7604C35.5485 44.9151 35.6359 45.0631 35.7301 45.2178C35.6897 45.3523 35.8579 45.4062 35.8579 45.5272C35.8041 45.7828 35.9924 45.9241 36.1337 46.0855C36.1538 46.1191 36.174 46.146 36.1942 46.1797C36.174 46.2402 36.1269 46.3209 36.1471 46.368C36.2884 46.7043 36.3422 47.0742 36.5305 47.3971C36.5978 47.5047 36.7188 47.6325 36.6516 47.7603C36.5238 47.989 36.7659 47.8679 36.7995 47.9352C36.7928 47.9553 36.7928 47.9688 36.7995 47.989C36.8265 48.1504 36.8534 48.3118 36.8668 48.4665C36.8735 48.5674 36.8803 48.7019 37.0013 48.6818C37.1089 48.6616 37.1897 48.5607 37.156 48.4127C37.1359 48.3186 37.1493 48.2177 37.1493 48.1168C37.2367 47.9688 37.2435 47.8141 37.2098 47.6459Z" fill="#FFEA00"/>
<path d="M38.1649 43.8726C38.4743 43.7044 38.3735 43.4556 38.3062 43.2605C38.138 42.783 38.2591 42.292 38.1582 41.8279C38.1111 41.5925 38.4071 41.7404 38.3667 41.5319C38.3062 41.2158 38.3398 40.8862 38.3062 40.5634C38.2591 40.0253 38.0775 39.5141 38.1313 38.9558C38.1784 38.4984 38.138 38.0411 38.1448 37.577C38.1448 37.4761 38.1448 37.355 38.0439 37.3147C37.8825 37.2608 37.8825 37.2743 37.8757 37.1398C37.8757 37.086 37.8825 37.0254 37.869 36.9716C37.8488 36.8842 37.8152 36.7766 37.7008 36.7967C37.5731 36.8169 37.6067 36.9178 37.6403 37.0053C37.7008 37.1667 37.6807 37.3348 37.6605 37.503C37.5865 38.0814 37.3914 38.6195 37.1964 39.1643C37.0686 39.5208 36.9408 39.8907 36.9475 40.2607C36.9677 41.1822 36.8332 42.1171 37.0551 43.0318C37.1291 43.3278 37.1089 43.6439 37.1829 43.9533C37.2367 44.2022 37.4049 44.4578 37.2771 44.7335C37.1897 44.8344 37.1897 44.9555 37.1829 45.0766C37.1829 45.3658 37.1964 45.655 37.1762 45.9442C37.1493 46.4756 37.2502 47.0137 37.1628 47.5451C37.1291 47.7267 37.1426 47.915 37.082 48.0899C37.0215 48.2244 37.1224 48.3925 36.9812 48.5876C36.9408 48.332 36.9273 48.137 36.8601 47.9486C36.8466 47.9217 36.8332 47.8948 36.813 47.8679C36.6852 47.5518 36.5372 47.2491 36.4229 46.933C36.3354 46.6841 36.2211 46.442 36.2211 46.1729C36.2144 46.1258 36.1875 46.0855 36.1606 46.0451C36.0462 45.877 35.9117 45.7223 35.8915 45.507C35.8848 45.386 35.7906 45.2985 35.757 45.1842C35.6897 45.0093 35.6359 44.8277 35.4476 44.7403C35.3602 44.6999 35.3534 44.6057 35.34 44.5385C35.2391 44.0811 34.9431 43.7044 34.775 43.2807C34.5934 42.8301 34.2638 42.4467 34.21 41.9355C34.1831 41.6799 34.0351 41.4378 33.941 41.1889C33.914 41.1284 33.8602 41.0611 33.7863 41.088C33.719 41.1149 33.6921 41.1822 33.6988 41.2561C33.7257 41.4109 33.7661 41.5655 33.7324 41.7404C33.5912 41.5588 33.6248 41.3436 33.5576 41.1553C33.4769 40.9266 33.4836 40.9131 33.2549 40.9198C33.228 40.9198 33.1675 40.8593 33.1742 40.8391C33.2213 40.6306 33.0195 40.5903 32.9253 40.4961C32.8311 40.4019 32.6495 40.0993 32.6159 40.5432C32.6092 40.6037 32.5621 40.6239 32.5285 40.6172C32.2662 40.5432 32.3872 40.7181 32.4007 40.8122C32.5554 41.7337 32.4343 42.6485 32.367 43.5699C32.3267 44.1685 32.2191 44.7604 32.2258 45.3658C32.2325 45.9173 32.1653 46.4689 32.1787 47.0137C32.1854 47.1549 32.0038 47.1751 32.0778 47.3231C32.3469 47.8477 32.3536 48.4329 32.4007 49.0046C32.4074 49.0719 32.4141 49.1324 32.4209 49.1997C32.8042 49.1324 32.5823 49.6301 32.8581 49.657C32.8648 50.0404 32.9724 50.4171 33.0195 50.7803C33.0666 51.1839 33.1002 51.6009 33.154 52.0112C33.1809 52.2264 33.4163 52.2466 33.5307 52.2533C33.7324 52.2668 33.7055 52.0314 33.6719 51.9103C33.5307 51.2982 33.5643 50.6727 33.4634 50.0539C33.4365 49.9059 33.4432 49.7445 33.5643 49.5562C33.8132 50.2288 33.9006 50.8745 33.9544 51.5471C34.1024 51.3991 34.0957 51.3991 34.0889 51.2646C34.0553 50.222 33.9611 49.193 33.5239 48.2177C33.3961 47.9284 33.2414 47.5787 33.2953 47.202C33.3222 47.0137 33.1338 46.7581 33.2078 46.6303C33.4365 46.2335 33.08 45.8366 33.3087 45.4196C33.4567 45.1506 33.3625 44.7201 33.3894 44.3636C33.4298 43.8726 33.4701 43.3816 33.571 42.8301C34.062 43.5161 34.3714 44.2291 34.701 44.9286C35.044 45.6416 35.3198 46.3747 35.535 47.128C35.6158 47.4038 35.6494 47.6998 35.9588 47.8477C36.0799 47.9015 36.1202 48.0361 36.1673 48.1639C36.2346 48.3589 36.2951 48.554 36.3893 48.7356C36.6785 49.2669 36.8197 49.8117 36.6785 50.4171C36.6583 50.5113 36.5305 50.5113 36.5709 50.6122C36.6112 50.713 36.6516 50.8207 36.7054 50.9148C36.7323 50.9619 36.7659 51.0695 36.8466 50.9955C36.8937 50.9552 37.0148 50.9754 36.961 50.7938C36.9139 50.6391 36.9206 50.4306 36.9004 50.2489C36.8937 50.1413 36.8735 49.9732 36.9744 49.9463C37.0484 49.9261 37.1695 50.0472 37.2031 50.175C37.2031 50.1817 37.2435 50.1817 37.2838 50.1884C37.2569 49.9934 37.5394 49.731 37.1426 49.657C37.2636 49.5293 37.4318 49.4149 37.1628 49.3207C37.4991 48.6683 37.4453 47.9352 37.5865 47.2088C37.8219 47.6796 37.5461 48.1975 37.7614 48.628C37.9968 48.4598 38.0371 48.1975 38.017 47.9688C37.9766 47.5921 37.8488 47.2289 37.9094 46.8321C37.9699 46.4756 37.6941 46.0788 38.0708 45.7626C38.138 45.7088 38.1649 45.6348 38.1313 45.5541C37.9497 45.1371 38.0506 44.6932 38.0506 44.2627C38.091 44.1618 38.0842 43.9197 38.1649 43.8726ZM32.8244 49.3947C32.7303 49.2468 32.811 49.0517 32.6025 49.0113C32.6495 48.9912 32.7034 48.9844 32.7437 48.9575C32.9253 48.8297 32.9858 49.0584 33.006 49.1055C33.1002 49.2938 32.7572 49.1795 32.8244 49.3947ZM32.8648 40.9064C33.0733 41.2158 33.1607 41.5454 33.1809 41.9758C32.7437 41.1485 32.7437 41.1485 32.8648 40.9064ZM37.9161 38.9491C37.9363 39.2787 37.7008 39.5813 37.8757 39.9244C37.9094 39.9916 37.647 40.1665 37.6403 40.3549C37.6134 40.3414 37.5731 40.3414 37.5529 40.3212C37.3713 40.18 37.3713 40.18 37.2502 40.3481C37.1762 39.9916 37.5663 38.4245 37.9363 37.6375C37.9363 38.0949 37.8892 38.5253 37.9161 38.9491ZM38.1111 40.6373C38.1649 41.0006 38.2053 41.2763 38.2524 41.5655C38.0977 41.4781 37.9901 40.94 38.1111 40.6373Z" fill="#1B161C"/>
<path d="M30.9344 53.5985C30.7259 53.6322 30.5174 53.6792 30.3089 53.686C30.0735 53.6927 29.9457 53.4438 30.1205 53.3228C30.3358 53.1748 30.2685 52.9999 30.3021 52.825C30.3425 52.5963 30.403 52.3677 30.4703 52.1457C30.6586 51.5202 30.9008 50.9081 30.7931 50.222C30.7528 49.9799 30.6115 49.6436 30.7797 49.4822C31.0286 49.24 30.9008 48.9912 30.9613 48.749C31.0151 48.5338 30.8806 48.3791 30.8671 48.184C30.8268 47.7401 30.9546 47.2962 30.894 46.8523C30.8873 46.785 30.8537 46.6908 30.9411 46.637C31.1227 46.5227 31.1227 46.5227 30.9478 46.3209C31.0151 46.2738 31.1429 46.5025 31.1496 46.3007C31.1564 46.2065 31.1227 46.0922 31.116 45.9846C31.0824 45.4869 30.9344 44.9958 30.8806 44.4981C30.8604 44.3165 30.699 44.3098 30.6721 44.1551C30.5039 43.2941 30.1811 42.5072 29.6228 41.8211C29.4076 41.5588 29.0511 41.3503 29.1991 40.9064C29.226 40.8257 29.1722 40.6844 29.0309 40.6508C28.9367 40.792 29.0578 40.9602 28.9502 41.1418C28.8493 40.9602 28.6879 40.9064 28.5399 41.0073C28.3919 41.1149 28.4659 41.2898 28.5063 41.4445C28.5332 41.5386 28.5534 41.7001 28.513 41.7337C28.2978 41.8884 28.3179 42.1709 28.2574 42.3525C28.17 42.6148 28.0623 42.9175 28.0489 43.2269C28.0354 43.4959 28.022 43.7717 27.9749 44.0407C27.948 44.2156 27.7799 44.3232 27.6991 44.1887C27.5646 43.9466 27.4301 44.108 27.3225 44.1484C27.1745 44.1954 27.2485 44.33 27.2687 44.4376C27.3023 44.6125 27.4099 44.8008 27.3696 44.9488C27.235 45.4398 27.2619 45.9442 27.1476 46.4352C27.114 46.5832 26.9593 46.7043 26.9929 46.8657C27.1207 47.4711 26.7508 48.0495 26.9122 48.6481C26.9324 48.7221 26.8853 48.7692 26.8315 48.8163C26.7575 48.8768 26.7709 48.971 26.7642 49.0584C26.7373 49.4014 26.7709 49.7579 26.5759 50.0673C26.5086 50.1682 26.5019 50.2758 26.5086 50.3902C26.5221 50.6121 26.5355 50.8408 26.4683 51.0561C26.2934 51.5942 26.4615 52.1188 26.5019 52.6502C26.5221 52.9326 26.7709 52.7981 26.9256 52.825C27.1072 52.8519 27.1072 52.751 27.1207 52.6098C27.1543 52.2937 27.1678 51.9574 27.2888 51.6749C27.3897 51.4529 27.3292 51.2444 27.4166 51.0359C27.1476 51.0359 27.2014 51.3049 27.0534 51.3856C27.2821 51.6749 26.9189 51.7758 26.9055 52.0583C26.7844 51.8296 26.9122 51.6345 26.7306 51.5067C26.6768 51.4664 26.697 51.3722 26.7777 51.352C27.1745 51.2444 27.1207 50.8745 27.1812 50.5987C27.2149 50.444 27.235 50.3229 27.3897 50.2624C27.3763 50.37 27.383 50.4911 27.3494 50.592C27.309 50.7063 27.2888 50.8072 27.3561 50.9484C27.6991 50.5382 27.6252 50.0673 27.6521 49.6234C27.6588 49.4889 27.531 49.5292 27.4503 49.5292C27.4099 49.7714 27.5243 50.0337 27.3763 50.2691C27.3763 50.1615 27.2956 50.0942 27.235 50.0202C27.2014 49.9732 27.1476 49.9059 27.2014 49.8857C27.3965 49.805 27.5108 49.7243 27.2619 49.5629C27.3225 49.5494 27.383 49.536 27.4435 49.5225V49.5292C27.5108 49.4284 27.6722 49.3745 27.5646 49.2064C27.5512 49.1795 27.5579 49.1189 27.5915 49.1391C27.8942 49.314 27.7059 49.0315 27.7462 48.971C27.8404 48.8499 27.6991 48.6616 27.8538 48.5405C27.8942 48.5069 27.8673 48.4329 27.7866 48.4396C27.7059 48.4463 27.5982 48.4598 27.6722 48.332C27.7126 48.258 27.7126 48.1437 27.8135 48.1168C27.9144 48.0899 27.9749 48.184 27.9749 48.2513C27.9816 48.4463 28.1363 48.4531 28.2507 48.5338C28.4794 48.6952 28.7753 48.6548 28.9973 48.7961C29.2865 48.9844 29.6026 49.0853 29.9389 49.045C30.1676 49.0181 30.208 49.1055 30.208 49.2938C30.208 49.5965 30.2147 49.8992 30.2147 50.2019C30.208 50.5987 30.208 50.9955 30.0398 51.3655C29.8179 51.8497 29.5421 52.3206 29.4412 52.8519C29.3672 53.2622 29.3134 53.6792 28.7282 53.5918C28.6542 53.5784 28.5803 53.6523 28.587 53.7465C28.587 53.8407 28.6744 53.8205 28.735 53.8474C28.9838 53.9483 29.2461 53.8474 29.5017 53.9012C30.134 54.029 30.7057 53.7869 31.2909 53.6389C31.1698 53.5447 31.0487 53.5851 30.9344 53.5985ZM27.4368 48.4867C27.3763 48.554 27.2485 48.4396 27.309 48.3993C27.4234 48.3185 27.3494 48.184 27.4637 48.0966C27.605 48.258 27.5243 48.3925 27.4368 48.4867ZM28.9636 48.5674C29.2125 48.5338 29.3605 48.6414 29.5555 48.7759C29.2865 48.7961 29.1318 48.7356 28.9636 48.5674Z" fill="#1B161C"/>
<path d="M27.3897 50.1615C27.3965 50.0404 27.3965 49.9126 27.4099 49.7916C27.383 49.9126 27.3494 50.0337 27.3897 50.1615Z" fill="#1B161C"/>
<path d="M27.4368 49.5965C27.4435 49.5696 27.4435 49.5494 27.4503 49.5225C27.4435 49.536 27.4368 49.5494 27.4368 49.5561C27.4368 49.5763 27.4368 49.5898 27.4368 49.5965Z" fill="#1B161C"/>
<path d="M30.3559 46.9868C30.3021 46.7715 30.4165 46.5765 30.4165 46.3612C30.4165 45.4129 30.403 44.4779 30.0734 43.5699C29.9187 43.1462 29.8649 42.6821 29.5421 42.3256C29.7035 42.0431 29.4143 41.9691 29.3067 41.8077C29.273 41.7539 29.2125 41.6799 29.1654 41.6799C29.0713 41.6799 29.078 41.7808 29.0578 41.848C29.0376 41.922 28.9838 41.9826 29.0107 42.0633C28.9973 42.0767 28.9973 42.0902 29.004 42.1036C28.8897 42.339 28.8829 42.6014 28.8426 42.8569C28.7619 43.2067 28.6811 43.5632 28.5937 43.9129C28.5937 44.3031 28.4525 44.6595 28.3314 45.0228C28.3314 45.0631 28.3247 45.0967 28.3247 45.1371C28.1632 45.3994 28.2103 45.7223 28.1162 46.0048C28.0758 46.1326 28.1632 46.368 27.8606 46.2402C27.7462 46.1931 27.7866 46.3478 27.8 46.4016C27.8606 46.6976 27.9076 46.9868 27.8471 47.2894C27.8202 47.4172 27.7664 47.5989 27.9413 47.6997C28.1632 47.7939 28.3583 48.0226 28.6408 47.8477C28.7551 48.2244 29.1452 48.2042 29.3941 48.3858C29.6093 48.601 29.912 48.675 30.1542 48.8499C30.3223 48.971 30.3089 48.7894 30.3021 48.7221C30.2483 48.3656 30.2887 48.0159 30.3559 47.6661C30.3627 47.6527 30.3694 47.6392 30.3694 47.6325C30.4434 47.4172 30.4434 47.202 30.3559 46.9868ZM29.9995 48.6481C30.0129 48.6548 30.0264 48.6549 30.0398 48.6549C30.0398 48.6683 30.0398 48.6818 30.0331 48.6885C30.0196 48.675 30.0062 48.6616 29.9995 48.6481Z" fill="#FFEA00"/>
<path d="M21.7465 53.5784C22.0358 53.8339 22.4999 53.5178 22.7555 53.9147C22.6075 54.0088 22.4864 53.9214 22.3653 53.9012C21.8878 53.8138 21.4102 53.7129 20.9192 53.881C20.6233 53.9819 20.3946 54.1299 20.3139 54.4527C20.2735 54.6142 20.1726 54.5335 20.1323 54.4729C20.0112 54.2913 19.8834 54.0963 19.796 53.8945C19.6614 53.5649 19.7556 53.4506 20.1121 53.4775C20.4551 53.5044 20.7847 53.6523 21.121 53.5716C20.9529 53.0537 20.6905 52.556 20.8856 51.9775C20.9192 51.8767 20.8654 51.7489 20.8587 51.6278C20.7713 50.7063 21.0739 49.8454 21.2824 48.971C21.3362 48.7423 21.4237 48.5405 21.0201 48.6212C20.7376 48.675 20.4686 48.5741 20.2735 48.3185C20.139 48.1437 19.9776 47.9822 19.796 47.8477C19.5875 47.6863 19.5 47.5181 19.6076 47.2693C20.1928 47.3567 20.778 47.4441 21.3564 47.5854C21.4506 47.6056 21.5313 47.6123 21.5515 47.4778C21.6726 46.6841 22.2308 46.0518 22.3788 45.2582C22.4461 44.895 22.4528 44.895 22.0963 44.9286C21.7196 44.9622 21.343 44.9891 20.9798 45.0967C20.852 45.1371 20.7242 45.164 20.6166 45.2514C20.5358 45.3187 20.4417 45.2985 20.3677 45.2514C20.287 45.1976 20.3946 45.1371 20.3879 45.09C20.3811 44.8815 20.2668 44.8681 20.1121 44.9622C20.0448 45.0026 19.9776 45.0093 19.9507 44.9286C19.9305 44.8681 20.0045 44.8411 20.0448 44.8075C20.1659 44.7066 20.3475 44.8142 20.5157 44.6797C20.2601 44.6326 20.0448 44.6528 19.8565 44.5519C19.7892 44.5183 19.7422 44.4712 19.7354 44.404C19.7354 44.3165 19.8161 44.3031 19.8767 44.2896C20.3475 44.1954 20.8116 44.0811 21.2824 44.0273C21.5717 43.9937 21.8542 43.9466 22.1434 43.9062C22.325 43.8793 22.4999 43.8591 22.6277 44.1013C22.7286 43.8457 22.6949 43.6237 22.7891 43.4085C23.0043 42.9309 23.1792 42.7762 23.6837 42.8368C24.0132 42.8704 23.7644 42.5879 23.9056 42.4736C24.02 42.5745 24.0401 42.6888 23.9998 42.8368C23.9662 42.9511 23.9123 43.0722 23.9056 43.1865C23.8854 43.5296 23.7509 43.9264 24.2352 44.0945C24.3966 44.1484 24.4773 44.3165 24.5984 44.404C24.6791 44.3905 24.6724 44.3434 24.6791 44.2963C24.6926 44.2022 24.5648 44.0542 24.7598 44.034C24.9549 44.0071 24.8876 44.1685 24.8944 44.2627C24.8944 44.3569 24.9482 44.3703 25.0222 44.3636C25.271 44.3367 25.3652 44.5317 25.4123 44.7066C25.5132 45.0766 25.641 45.4465 25.6477 45.8366C25.762 45.8097 25.984 45.7357 25.9705 45.8366C25.9504 46.0048 26.1925 46.1393 25.9974 46.3142C25.9369 46.3612 25.8495 46.4756 25.9705 46.6034C26.0243 46.6639 25.9974 46.7984 25.9167 46.8792C25.7217 47.0742 25.6746 47.3567 25.5333 47.5652C25.2508 47.9621 24.8742 48.2715 24.3361 48.3454C23.798 48.4194 23.2532 48.4665 22.7151 48.4665C22.5335 48.4665 22.4797 48.554 22.4528 48.7019C22.2645 49.6369 22.0627 50.5718 21.8945 51.5134C21.8474 51.7623 21.8811 52.0314 21.9147 52.2802C21.9618 52.7241 21.9685 53.1748 21.7465 53.5784Z" fill="#1B161C"/>
<path d="M25.0961 45.5608C24.9885 45.1842 24.9212 44.7873 24.4706 44.6461C24.3361 44.6057 24.2016 44.5519 24.067 44.5048C23.7038 44.3838 23.5558 44.4847 23.4953 44.8882C23.3944 45.4263 23.2599 45.9509 23.011 46.4419C22.8429 46.7648 22.7285 47.1146 22.6478 47.471C22.594 47.6863 22.6747 47.8275 22.8631 47.8948C23.4213 48.0966 23.993 48.1504 24.558 47.962C24.7531 47.8948 24.9818 47.7804 25.0558 47.5518C25.2777 46.8926 25.3383 46.2334 25.0961 45.5608Z" fill="#E42719"/>
<path d="M16.2177 49.1795C16.8768 48.823 17.4822 48.4194 17.6167 47.5989C17.6369 47.4912 17.6436 47.3769 17.61 47.276C17.4687 46.7917 17.5629 46.3007 17.5293 45.8097C17.5158 45.6685 17.5024 45.5407 17.4082 45.4465C17.2064 45.2313 16.971 45.0429 16.8365 44.7537C16.7692 44.6057 16.6011 44.6125 16.4464 44.6394C16.1168 44.7134 15.7805 44.6999 15.4307 44.6259C15.4307 44.7537 15.6123 44.8613 15.4845 44.9757C15.35 45.0967 15.2222 44.9757 15.081 44.9555C14.6909 44.9017 14.294 44.9084 13.8905 44.9219C13.2784 44.942 12.8815 44.5116 12.4578 44.1484C12.2426 43.96 12.1686 43.6237 11.8054 43.5766C11.7179 43.5632 11.7717 43.3345 11.8928 43.2874C12.108 43.2 12.182 43.0251 12.2224 42.83C12.2627 42.6148 12.3502 42.4399 12.5183 42.3054C12.4712 42.2381 12.2829 42.3592 12.3434 42.1709C12.4242 41.922 12.599 42.218 12.7067 42.1036C12.7067 42.1104 12.7134 42.0902 12.7067 42.0902C12.4511 41.8682 12.4712 41.6664 12.7268 41.4512C12.7739 41.4108 12.8479 41.3301 12.8008 41.2158C12.7537 41.1014 12.8076 41.088 12.9421 41.0544C13.1102 41.014 13.2649 40.8391 13.3793 40.6911C13.4667 40.5835 13.312 40.5633 13.2447 40.523C13.1708 40.4826 13.1842 40.4086 13.2111 40.3481C13.2515 40.2607 13.3187 40.1867 13.4196 40.2001C13.7492 40.2338 14.0721 40.032 14.4285 40.2338C14.5832 40.3212 14.8523 40.1934 15.0742 40.1665C15.5922 40.0992 16.1033 39.9445 16.6145 40.2203C16.749 40.2943 16.897 40.18 17.0383 40.1867C17.1526 40.1867 17.2737 40.1531 17.3544 40.2405C17.4486 40.3414 17.5562 40.4557 17.536 40.6104C17.5158 40.7988 17.3477 40.7113 17.2468 40.745C17.1728 40.7651 17.0988 40.7988 17.0248 40.792C16.7423 40.7786 16.6145 40.8727 16.7356 41.1687C16.7692 41.2427 16.7827 41.357 16.7154 41.3839C16.5742 41.4445 16.3926 41.4377 16.2849 41.357C15.9957 41.1418 15.6325 41.2091 15.3164 41.1149C15.1012 41.0544 14.6976 41.2292 14.442 41.4512C14.3747 41.5117 14.2873 41.6059 14.22 41.5117C14.1393 41.4041 14.2604 41.3368 14.3411 41.283C14.4084 41.236 14.5496 41.2427 14.5227 41.1283C14.4958 41.014 14.3747 41.0678 14.2873 41.0611C13.7425 41.014 13.5811 41.1283 13.534 41.6463C13.4869 42.1843 13.3187 42.6888 13.1035 43.1731C13.0631 43.2605 13.0026 43.3412 13.0833 43.4152C13.4936 43.7717 13.8232 44.2694 14.5025 44.0946C14.7581 44.0273 15.0406 44.0878 15.3097 44.0811C15.5787 44.0744 15.8477 44.0811 16.0899 44.2291C16.2244 43.8457 16.3455 43.7919 16.7221 43.9533C17.0248 44.0878 17.3073 44.256 17.3813 44.6259C17.3948 44.7066 17.4284 44.821 17.5293 44.8344C17.6503 44.8546 17.5898 44.7134 17.6369 44.6663C17.7512 44.5452 17.7983 44.6595 17.7983 44.7335C17.8118 44.9555 17.9665 45.1169 18.0203 45.3187C18.0539 45.4398 18.0741 45.581 18.2826 45.5407C18.4171 45.5138 18.4373 45.6617 18.4373 45.7559C18.4507 45.9779 18.4777 46.2133 18.4306 46.4285C18.3835 46.6572 18.3566 46.859 18.444 47.0809C18.4777 47.1617 18.4777 47.2625 18.3969 47.3298C18.0405 47.6325 17.9597 48.0764 17.8118 48.4867C17.7243 48.7221 17.7311 49.0181 17.3746 49.1189C17.2804 49.1459 17.1459 49.4082 16.9979 49.5225C16.823 49.6638 16.6414 49.7848 16.4464 49.8992C16.258 50.0068 16.0899 50.0606 15.9016 49.9194C15.8679 50.0404 16.0092 50.027 15.9957 50.1211C15.8545 50.1749 15.7132 50.1413 15.5653 50.1346C15.3298 50.1144 15.1079 50.1077 14.8994 50.2691C14.6169 50.4844 14.2873 50.3296 13.9846 50.3095C13.6752 50.296 13.4062 50.1144 13.164 49.8588C12.9757 49.6638 12.7067 49.5629 12.6663 49.2467C12.6327 48.9777 12.7605 48.7221 12.7874 48.4598C12.8143 48.2042 12.9757 47.9688 13.0699 47.7199C13.2447 47.276 13.5272 47.5787 13.7492 47.6325C14.0048 47.693 14.0384 47.9083 13.9308 48.1302C13.8972 48.2042 13.8703 48.2715 13.8703 48.3522C13.8568 48.5809 13.7828 48.7961 13.729 49.0181C13.655 49.4351 13.7088 49.5292 14.1057 49.5023C14.6976 49.462 15.2962 49.4418 15.8814 49.2938C15.989 49.2467 16.0832 49.1526 16.2177 49.1795Z" fill="#1B161C"/>
<path d="M16.1841 48.897C15.9217 48.7894 15.72 48.5472 15.4173 48.5069C15.2895 48.2513 15.0541 48.4127 14.8725 48.3791L14.8792 48.3724C14.7447 48.1235 14.516 48.2782 14.3277 48.2513C14.1662 48.2311 13.9914 48.1706 13.8703 48.3455C13.6752 48.5069 13.729 48.7625 13.6618 48.9643C13.4936 49.4485 13.5609 49.5629 14.0317 49.5898C14.3344 49.61 14.6303 49.5763 14.9196 49.5091C15.2693 49.4284 15.6594 49.5494 15.9823 49.3207C16.0899 49.3275 16.1437 49.24 16.211 49.1795C16.1706 49.0921 16.3522 48.971 16.1841 48.897Z" fill="#FFEA00"/>
<path d="M4.65551 49.4149C5.71824 49.1324 6.81459 49.1526 7.8975 49.0382C8.53648 48.971 9.17546 49.045 9.81444 48.9912C10.2651 48.9575 10.5005 49.2602 10.366 49.6974C10.3054 49.8992 10.292 50.0337 10.5005 50.1346C10.6619 50.2153 10.5341 50.3498 10.4938 50.4171C10.292 50.7399 9.97586 50.9148 9.63283 51.0695C8.73153 51.4731 7.77643 51.4596 6.82805 51.5134C6.52537 51.5336 6.22942 51.5807 5.94693 51.6883C5.55009 51.843 5.13307 51.7825 4.7295 51.7892C4.1376 51.8027 3.54571 51.7623 2.95381 51.7354C2.55697 51.722 2.23412 51.574 1.98525 51.2444C1.6893 50.8543 1.11758 49.6503 0.996515 49.1929C0.929254 48.9239 0.794732 48.675 0.66021 48.4262C0.377714 47.8948 0.26337 47.3164 0.236466 46.7245C0.216287 46.3882 0.10867 46.0653 0.0548608 45.7424C-0.0931134 44.8277 0.0279562 44.3905 0.794732 44.0071C1.13104 43.839 1.41353 43.6035 1.6893 43.3749C2.34846 42.8368 3.11524 42.5072 3.85511 42.1103C4.83712 41.5924 5.7855 40.9938 6.8415 40.6172C6.89531 40.597 6.93566 40.5566 7.00292 40.597C6.94912 40.7382 6.69352 40.6844 6.70698 40.9131C7.26524 40.7517 7.7697 40.4826 8.30106 40.2809C8.39523 40.2472 8.48939 40.1867 8.58356 40.18C8.73153 40.1665 8.87278 40.0118 9.02076 40.1732C9.162 40.3279 9.15528 40.5432 9.07456 40.6777C8.91314 40.9736 8.89296 41.3167 8.75171 41.6059C8.5163 42.0767 8.07238 42.3727 7.6419 42.6619C7.29215 42.8906 6.94239 43.1193 6.46484 43.1058C6.11508 43.0991 5.85276 43.4421 5.54336 43.617C4.8842 43.9869 4.14433 44.1887 3.49863 44.5923C2.86637 44.9824 2.22067 45.3523 1.57496 45.729C1.46734 45.7895 1.52788 45.8635 1.56823 45.924C1.75656 46.2065 1.87091 46.5159 1.93817 46.8455C1.98525 47.1078 2.13323 47.1617 2.37537 47.0473C2.92018 46.785 3.47845 46.5563 4.09052 46.4689C4.31921 46.4352 4.51427 46.4218 4.66224 46.6168C4.81021 46.8119 4.76986 47.0137 4.67569 47.2155C4.52099 47.5316 4.25195 47.7536 3.98963 47.9822C3.74076 48.2177 3.42464 48.2782 3.11524 48.3656C2.75875 48.4665 2.72512 48.5405 2.85292 48.8903C2.94708 49.1526 3.09506 49.388 3.16232 49.6638C3.21613 49.8857 3.39101 49.879 3.56589 49.7983C3.83493 49.6638 4.11743 49.5561 4.39992 49.4553C4.48736 49.4283 4.56135 49.3813 4.65551 49.4149Z" fill="#1B161C"/>
<path d="M4.65551 49.4149C4.27213 49.5763 3.88874 49.7378 3.50535 49.9059C3.27666 50.0068 3.11524 49.9261 3.07488 49.7109C3.01435 49.3746 2.83947 49.0921 2.71167 48.7894C2.59733 48.5203 2.70494 48.3858 2.91345 48.332C3.28339 48.2378 3.62642 48.0899 3.9829 47.9755C4.58153 48.1908 4.79004 48.6414 4.65551 49.4149Z" fill="#E42719"/>
<path d="M41.7971 6.18624C41.8105 5.85666 41.8307 5.51363 41.5953 5.24459C41.4406 5.06971 41.333 4.87465 41.2253 4.67287C41.1715 4.47781 41.0572 4.37019 40.8487 4.38364C40.8218 4.22222 40.5931 4.28948 40.5595 4.12805C40.4855 3.94645 40.3846 3.81865 40.1626 3.85228C39.981 3.76484 39.7994 3.6774 39.6178 3.58996C39.5707 3.38146 39.4362 3.28729 39.221 3.31419C39.0057 3.15949 38.851 2.91063 38.5416 2.91735C38.5013 2.91063 38.4609 2.9039 38.4273 2.9039C38.2255 2.62141 37.9564 2.48016 37.6134 2.50706C37.3713 2.46671 37.2099 2.22457 36.9475 2.23129C36.8601 2.00933 36.6785 2.1304 36.5305 2.11022C36.0731 1.98915 35.6225 1.84118 35.1584 1.75374C34.8288 1.6932 34.5799 1.45779 34.2504 1.43089C34.2302 1.28964 34.1226 1.30309 34.0284 1.30309C33.8333 1.29636 33.6383 1.29636 33.4432 1.29636C33.3625 1.08113 33.1809 1.18875 33.0329 1.16857C32.6092 1.00714 32.1586 1.0475 31.7214 1.02732C31.6003 1.02059 31.4725 1.01387 31.3581 0.980237C30.9546 0.859167 30.5308 0.859167 30.134 0.933154C29.1789 1.11476 28.2036 1.12821 27.2552 1.30982C27.0669 1.32327 26.8449 1.2022 26.7037 1.43089C26.6633 1.43761 26.623 1.43761 26.5826 1.44434C26.4481 1.47797 26.253 1.32999 26.1723 1.56541C26.132 1.57213 26.0849 1.57213 26.0445 1.57886C25.8562 1.59231 25.6342 1.47124 25.493 1.70666C25.2845 1.72011 25.0894 1.72011 24.8809 1.80082C24.5244 1.94207 24.1343 2.01606 23.7576 2.12367C23.5693 2.13713 23.3474 2.02278 23.2128 2.2582C22.9572 2.2582 22.6546 2.16403 22.5402 2.52051C22.2645 2.48016 22.0425 2.5676 21.8676 2.78956C21.7331 2.97789 21.4775 2.91063 21.3228 3.05188C21.047 3.01825 20.8251 3.11914 20.6435 3.31419C20.4148 3.44872 20.1928 3.58324 19.9641 3.71776C19.8565 3.72449 19.7354 3.70431 19.7018 3.85901C19.5067 3.85901 19.3588 3.933 19.2982 4.13478C19.1839 4.12805 19.1503 4.28948 19.0292 4.2693C18.7602 4.3971 18.3633 4.28275 18.2288 4.67959C18.0472 4.94864 17.805 5.15042 17.5495 5.34548C17.1459 5.41274 16.9576 5.72887 16.749 6.02481C16.6011 6.05172 16.5069 6.13243 16.4666 6.28041C16.1437 6.32076 15.9688 6.49564 15.9217 6.81177C15.6998 6.97992 15.5384 7.19516 15.3904 7.43057C15.3971 7.59872 15.5451 7.55837 15.6392 7.59872C15.7469 7.65253 15.8478 7.71307 15.8276 7.84086C15.8074 7.98211 15.6729 7.99556 15.5653 7.98884C15.3567 7.98211 15.1415 7.9283 14.933 7.94848C14.8657 7.94848 14.8119 7.96193 14.7581 7.98884C14.664 7.98884 14.5698 8.01574 14.4689 8.02919C14.4891 8.14354 14.3411 8.16371 14.3277 8.26461C14.3142 8.27806 14.3007 8.28478 14.2873 8.30496C14.2873 8.31169 14.2806 8.31842 14.2806 8.32514C14.1326 8.38568 14.0384 8.49329 14.0384 8.66145C14.025 8.6749 14.0183 8.68162 14.0048 8.69508C13.8501 8.68835 13.7761 8.75561 13.7694 8.89013C13.7492 8.89686 13.7358 8.90359 13.7156 8.91031C13.5743 8.97085 13.5609 9.11882 13.4802 9.22644C13.4734 9.23989 13.4734 9.25334 13.4667 9.26007C13.3456 9.30043 13.2851 9.39459 13.238 9.51566C13.043 9.64346 12.8345 9.75107 12.821 10.0268C12.8143 10.0336 12.8076 10.0403 12.8008 10.047C12.747 10.0605 12.6999 10.0739 12.6461 10.0874C12.6865 10.3026 12.7201 10.5179 12.7336 10.7331C12.7336 11.1434 12.7403 11.5537 12.7336 11.9707C12.7201 12.1321 12.6865 12.2465 12.6327 12.3137C12.6125 12.3272 12.599 12.3406 12.5721 12.3474C12.5385 12.3608 12.5116 12.3743 12.478 12.381C12.4242 12.381 12.3569 12.3675 12.2829 12.3406C12.2627 12.3204 12.2358 12.3003 12.2224 12.2666C11.9466 11.9505 11.6238 12.1321 11.3144 12.1859C11.2336 12.1994 11.1597 12.2128 11.0789 12.2263C10.8839 12.2868 10.7763 12.4079 10.8032 12.6231C10.6283 12.7038 10.5072 12.8115 10.5341 13.0267H10.5274C10.3189 13.0065 10.2382 13.1074 10.2718 13.3025L10.2785 13.3092C10.0835 13.3697 9.98259 13.4908 10.0028 13.706H9.99604C9.80098 13.7666 9.72027 13.9145 9.727 14.1096C9.54539 14.4257 9.43778 14.7822 9.20909 15.0714C8.98713 15.1118 8.91314 15.2598 8.93332 15.4683C8.91986 15.6028 8.89969 15.7306 8.8257 15.8516C8.52975 16.3225 8.34142 16.8471 8.11946 17.3516C7.91095 17.5264 7.81678 17.7484 7.84369 18.0175C7.63518 18.1923 7.54101 18.4143 7.57464 18.6901C7.37286 18.8717 7.2787 19.0936 7.31233 19.3694C7.08364 19.4367 7.19798 19.6317 7.17781 19.773C7.17108 20.0958 7.21816 20.4321 7.14417 20.7415C6.97602 21.4343 6.9962 22.1473 6.93566 22.8468C6.8415 23.9432 6.91549 25.0597 6.91549 26.1628C6.91549 26.3713 6.92221 26.5798 7.03656 26.7681C7.07019 26.9497 6.92221 27.1784 7.17108 27.3062C7.39977 27.8846 7.62845 28.4631 7.85714 29.0415C7.9244 29.2231 7.96476 29.4249 8.16654 29.5258C8.26743 29.8487 8.52975 30.0841 8.65082 30.4002C8.63737 30.602 8.71808 30.7432 8.91987 30.8038C9.04766 31.1064 9.33688 31.3082 9.4445 31.6244C9.49831 31.9338 9.67319 32.1154 9.98259 32.1624C10.1776 32.3777 10.487 32.4517 10.6687 32.6804C10.7225 32.8821 10.857 32.9696 11.0588 32.9629C11.6238 33.279 12.2224 33.5144 12.8143 33.7633C13.0228 34.0458 13.3255 34.0458 13.6281 34.0189C13.803 34.0189 13.9779 34.0189 14.146 34.0189C14.5698 33.9583 14.9599 34.1332 15.3769 34.1534C15.572 34.1332 15.7132 34.3081 15.9083 34.3013C15.9957 34.5771 16.211 34.5906 16.4464 34.5704C16.5136 34.5838 16.5943 34.5838 16.5876 34.6915C16.7625 34.9201 17.0181 34.9269 17.267 34.9336C17.3073 34.9336 17.3409 34.9336 17.3813 34.9336C17.5629 35.0143 17.8118 35.0076 17.9732 34.9067C17.9867 34.9067 18.0001 34.9 18.0136 34.9C18.0472 34.8865 18.0808 34.8596 18.101 34.826C18.1077 34.8193 18.1077 34.8125 18.1077 34.7991C18.2288 34.6982 18.2355 34.6107 18.1212 34.4964C18.1144 34.483 18.1144 34.4628 18.1077 34.4493C18.027 34.2408 17.8858 34.0861 17.6705 33.9987C17.6503 33.9919 17.6302 33.9852 17.61 33.9785C17.5024 33.8372 17.3477 33.7834 17.1795 33.7633C17.1728 33.7498 17.1593 33.7431 17.1526 33.7296C16.7558 33.2386 16.1706 33.0032 15.6661 32.6535C15.6527 32.6467 15.6392 32.6467 15.6258 32.64C15.572 32.4786 15.4644 32.4046 15.2962 32.4113C15.2895 32.3979 15.276 32.3911 15.2693 32.3777C15.1079 32.1557 14.8254 32.0817 14.6371 31.8867C14.1797 31.4226 13.7156 30.9719 13.2649 30.5078C13.2515 30.5011 13.238 30.4876 13.2313 30.4809C13.2313 30.3195 13.164 30.2052 13.0093 30.1581C13.0026 30.1446 13.0026 30.1312 12.9959 30.1177C12.8815 29.8419 12.6596 29.6469 12.4645 29.4384C12.4511 29.4249 12.4376 29.4182 12.4242 29.4047C12.4242 29.25 12.3636 29.1357 12.2157 29.0819C12.2157 29.0684 12.2089 29.055 12.2089 29.0415C12.1753 28.9406 12.1349 28.833 12.061 28.7456C12.0408 28.7321 12.0273 28.712 12.0206 28.6918C12.0341 28.5909 12.0542 28.49 11.9802 28.4227C11.9802 28.3958 11.9802 28.3757 11.9802 28.3487C11.8794 27.9721 11.7448 27.6089 11.5363 27.2726C11.5161 27.2524 11.496 27.2255 11.4825 27.2053C11.496 27.1111 11.5161 27.017 11.4422 26.943C11.4422 26.9026 11.4422 26.8623 11.4422 26.8219C11.4354 26.7076 11.3883 26.6067 11.3547 26.4991C11.1462 25.8937 11.0588 25.2749 11.0386 24.6292C11.0117 23.4723 11.2135 22.3356 11.1798 21.1787C11.1731 21.1047 11.1731 21.0375 11.1664 20.9635C11.2673 20.7415 11.3144 20.5061 11.3345 20.2572C11.3413 20.2505 11.3413 20.2438 11.348 20.2371C11.3682 20.2102 11.3816 20.1833 11.3951 20.1496V20.1429C11.5229 20.0756 11.4825 19.9478 11.4758 19.8335C11.4892 19.8133 11.5094 19.7864 11.5296 19.7662C11.7583 19.4972 11.8121 19.1474 11.9533 18.838C11.9533 18.8179 11.9533 18.8044 11.9533 18.7842C12.0744 18.7102 12.1551 18.6094 12.1417 18.4614C12.1551 18.4479 12.1753 18.4277 12.1888 18.4143C12.3838 17.93 12.6798 17.4928 12.821 16.9816C12.8748 16.8 12.9555 16.6184 13.0699 16.4705C13.4734 15.9593 13.729 15.3674 14.0586 14.8091C14.0653 14.7889 14.0721 14.762 14.0788 14.7418C14.2268 14.6948 14.2873 14.5871 14.2873 14.4324C14.3007 14.419 14.3142 14.4123 14.3277 14.3988C14.5698 14.0154 14.8859 13.6858 15.1348 13.3159C15.1348 13.3159 15.1348 13.3159 15.1348 13.3092C15.3231 13.3563 15.3635 13.2419 15.3702 13.1007C15.3836 13.1007 15.3971 13.0939 15.4106 13.0939C15.5585 13.0401 15.6594 12.9392 15.6998 12.7913C15.6998 12.7644 15.6998 12.7442 15.7065 12.724C15.8007 12.6769 15.9083 12.6568 15.9755 12.576C15.9957 12.576 16.0226 12.5693 16.0428 12.5693C16.1572 12.5491 16.2379 12.4751 16.3186 12.3944C16.8432 11.8698 17.3813 11.3788 18.0674 11.0627C18.0808 11.0492 18.0943 11.0358 18.1077 11.0156C18.2557 11.029 18.3499 10.9416 18.4171 10.8273C18.4373 10.8273 18.4575 10.8273 18.4844 10.8273C18.9014 10.7667 19.0897 10.417 19.3251 10.1345C19.3319 10.1143 19.3386 10.0941 19.3453 10.0739C19.4866 10.0605 19.5807 9.97976 19.6413 9.84524C19.6682 9.83179 19.6884 9.81834 19.7085 9.79816C19.8565 9.80488 19.9507 9.72417 20.0179 9.6031C20.0583 9.59637 20.0986 9.58965 20.139 9.58292C20.5493 9.30043 20.973 9.01793 21.4102 8.78252C21.9214 8.50675 22.3922 8.17717 22.9303 7.94175C23.6837 7.61217 24.4773 7.4373 25.2508 7.19516C25.688 7.06063 26.0983 6.8454 26.5423 6.73105C26.5692 6.7176 26.6028 6.70415 26.6297 6.6907C26.7911 6.69742 26.9593 6.75123 27.1005 6.66379C27.1476 6.66379 27.2014 6.67052 27.2485 6.66379C27.3696 6.67052 27.4906 6.66379 27.6184 6.67052C28.8897 6.73778 30.1474 6.44183 31.4187 6.52927C31.459 6.52927 31.5061 6.52255 31.5465 6.52255C31.6137 6.58981 31.7079 6.56963 31.7953 6.55618C31.829 6.56963 31.8626 6.58308 31.8895 6.60998C31.9769 6.64362 32.0644 6.65707 32.1518 6.65707C32.1653 6.65707 32.1855 6.65707 32.1989 6.65707C32.2729 6.73778 32.3805 6.71088 32.4747 6.69742C32.515 6.71088 32.5554 6.73105 32.589 6.75796C32.8177 6.80504 33.0262 6.94629 33.2616 6.92611C33.6047 6.89921 33.9208 7.00682 34.2302 7.11444C34.3647 7.16153 34.506 7.20188 34.6539 7.19516C34.6674 7.19516 34.6876 7.19516 34.701 7.18843C34.7077 7.23551 34.7145 7.2826 34.7616 7.26242C34.9297 7.18843 34.997 7.34986 35.1113 7.37676C35.1584 7.37003 35.2055 7.37003 35.2526 7.36331C35.8983 7.48438 36.4834 7.78033 37.0821 8.04264C37.3915 8.17717 37.7009 8.33187 37.9565 8.57401C38.0708 8.78252 38.2591 8.84978 38.4811 8.8565C38.5551 8.89686 38.6358 8.96412 38.7098 8.97085C39.3151 8.9843 39.9608 9.19281 40.4384 8.60764C40.4922 8.54038 40.5796 8.50675 40.6469 8.44621C40.9899 8.12336 41.4406 7.89467 41.5751 7.39021C41.8105 7.24896 41.676 7.027 41.6962 6.83867C41.7769 6.60998 41.7836 6.40148 41.7971 6.18624Z" fill="#FFEA00"/>
<path d="M19.8161 28.6043C19.426 28.3218 19.0359 28.0393 18.6458 27.7568C18.5247 27.6223 18.3633 27.5214 18.2355 27.3936C18.0068 27.1515 17.8589 26.8555 17.7512 26.5529C17.3678 25.5238 16.9979 24.488 17.0786 23.358C17.1392 22.4567 17.3746 21.589 17.684 20.7482C18.4306 18.7035 19.6951 17.0085 21.3161 15.5759C21.8878 15.0714 22.5604 14.6948 23.2666 14.4055C25.5132 13.4975 27.8471 12.9123 30.2282 12.529C31.3043 12.3541 32.3872 12.3137 33.4701 12.5155C34.1091 12.6366 34.6943 12.872 35.2256 13.2419C35.905 13.7195 36.5709 14.2172 37.1897 14.7687C37.8219 15.3405 38.3197 16.0063 38.6156 16.8135C38.9116 17.6206 39.3757 18.3605 39.5505 19.2214C39.8532 20.6743 39.7523 22.08 39.1873 23.4723C38.777 24.488 38.1313 25.3355 37.452 26.1762C36.9274 26.8219 36.396 27.4609 35.8377 28.0662C34.8154 29.1693 33.6921 30.0908 32.1518 30.454C30.8402 30.7634 29.5354 30.7365 28.2103 30.6625C26.9458 30.5885 25.6948 30.3935 24.4504 30.1782C24.0872 30.1177 23.724 30.037 23.3675 29.9294C22.4797 29.6603 21.5649 29.4586 20.7174 29.0752C20.6233 29.0348 20.5291 29.0012 20.4484 28.9406C20.2332 28.833 20.0314 28.7052 19.8161 28.6043Z" fill="#E42719"/>
<path d="M45.2274 21.3738C45.1063 20.0084 44.8709 18.6632 44.6287 17.3179C44.5413 16.8471 44.5413 16.3427 44.2992 15.9256C43.8687 15.1858 43.3911 14.4593 42.9001 13.7598C42.4495 13.1208 41.9383 12.5424 41.333 12.0245C40.7881 11.5604 40.2702 11.0828 39.6783 10.6725C38.7501 10.0268 37.7009 9.52238 37.0282 8.5471C36.9341 8.41258 36.7794 8.27133 36.618 8.27805C35.9857 8.29151 35.4812 7.93502 34.9162 7.74669C34.849 7.6189 34.7212 7.57181 34.6001 7.51128C33.4769 6.93956 32.2729 6.73105 31.0353 6.67052C30.3829 6.63688 29.7439 6.76468 29.0914 6.7445C28.0624 6.70415 27.0736 7.00682 26.0647 7.14134C25.3517 7.23551 24.7262 7.57181 24.0738 7.83413C23.1792 8.20407 22.2375 8.50674 21.5044 9.1928C21.3497 9.33405 21.1479 9.42149 20.9596 9.52238C20.4417 9.79143 19.9439 10.0874 19.6076 10.5918C19.4664 10.8071 19.2579 10.9752 19.0157 11.0761C18.0068 11.52 17.1257 12.1926 16.2042 12.7845C15.7805 13.0603 15.3836 13.3832 15.1281 13.8271C14.6841 14.5939 14.1662 15.3068 13.6954 16.0534C12.6932 17.6273 11.8592 19.2483 11.6372 21.1451C11.5161 22.2078 11.4892 23.284 11.2942 24.34C11.2605 24.5283 11.3009 24.7166 11.3144 24.9117C11.3614 25.8466 11.7112 26.7278 11.8592 27.6425C11.8995 27.8846 12.0139 28.1133 12.1618 28.3151C12.2829 28.4833 12.3704 28.6581 12.4376 28.8532C12.6663 29.5258 13.0362 30.0774 13.7156 30.3733C13.9241 30.4675 14.0721 30.6491 14.2066 30.8239C14.3815 31.0459 14.5765 31.241 14.7783 31.436C15.4038 32.0414 16.1302 32.5055 16.8298 33.0099C17.4149 33.4337 18.0875 33.696 18.7198 34.0256C18.7803 34.0592 18.8476 34.0592 18.9149 34.0458C19.9103 34.4695 20.8991 34.9 21.9349 35.2094C23.3204 35.6264 24.7329 35.8551 26.1723 35.9694C27.874 36.1039 29.5757 36.003 31.2505 35.7407C32.3738 35.5591 33.497 35.2766 34.6001 34.9672C35.4409 34.7318 36.248 34.4224 37.0081 34.0054C37.7345 33.6018 38.4205 33.1108 39.1402 32.6938C39.4698 32.5055 39.8061 32.3171 40.0886 32.0683C41.1043 31.167 42.0056 30.1581 42.8127 29.0752C43.418 28.268 43.9696 27.4273 44.3059 26.4789C44.6018 25.6314 44.7902 24.7503 45.0121 23.8759C45.2139 23.0418 45.3014 22.2213 45.2274 21.3738ZM17.2602 27.017C17.1123 26.9564 17.0786 26.8421 17.0652 26.7345C16.9239 25.8197 16.6213 24.9453 16.3858 24.0508C16.3119 23.7548 16.3253 23.4521 16.4935 23.21C17.1526 22.2683 17.2804 21.1451 17.6234 20.0958C17.6638 19.9747 17.6705 19.8469 17.6638 19.7057C17.6503 19.4837 17.6907 19.2618 17.8589 19.0667C18.1817 18.6968 18.3095 18.1991 18.5853 17.7888C18.8072 17.4659 19.0157 17.1363 19.3117 16.8807C19.991 16.2888 20.5022 15.5422 21.2824 15.0311C21.9416 14.5939 22.6344 14.1768 23.2196 13.6186C23.5626 13.289 24.0401 13.4101 24.4504 13.2957C25.3248 13.0536 26.2396 12.9594 27.0736 12.5559C27.7328 12.233 28.3987 11.9034 29.1318 11.7756C29.2394 11.7554 29.347 11.7151 29.4547 11.7554C30.3492 12.1119 31.2976 12.0514 32.2325 12.1254C32.7235 12.1657 33.2213 12.1187 33.7056 12.1792C34.5799 12.2868 35.2189 12.8653 35.8579 13.3966C36.7054 14.1029 37.5125 14.8696 38.4071 15.5221C38.8847 15.8718 39.0394 16.2485 39.1133 16.8068C39.2075 17.4592 39.4765 18.0847 39.7321 18.7035C40.0483 19.477 40.2433 20.2909 40.4653 21.098C40.546 21.3738 40.398 21.6495 40.3039 21.9051C40.0146 22.6921 39.7927 23.4925 39.5438 24.2929C39.2613 25.2009 38.6694 25.9139 37.9363 26.5058C37.5125 26.8488 37.1022 27.2053 36.8399 27.6963C36.7256 27.9183 36.544 28.0864 36.3556 28.2479C35.6494 28.8801 34.9432 29.5124 34.2436 30.1446C33.8603 30.4944 33.4365 30.7769 33.006 31.0661C32.8917 31.1468 32.7706 31.1804 32.6294 31.1603C31.5666 30.9854 30.4972 31.0997 29.4748 31.3351C28.9435 31.4562 28.5466 31.3486 28.096 31.167C27.2552 30.8172 26.3606 30.676 25.4593 30.6423C24.5311 30.6154 23.6029 30.528 22.6747 30.4809C22.3452 30.4675 22.0559 30.3128 21.8071 30.1043C21.3968 29.7612 20.9394 29.4787 20.482 29.2097" fill="#1B161C"/>
<path d="M12.182 12.2599C12.0677 12.1456 11.9735 12.0716 11.7919 12.1859C11.6641 12.2666 11.496 12.2263 11.348 12.1725C11.0386 12.0245 10.8704 11.7622 10.7763 11.446C10.7292 11.2779 10.7023 11.0963 10.5947 10.9281C10.5005 11.2308 10.4198 11.5133 10.3323 11.7958C10.1306 12.4146 9.76063 12.9258 9.35034 13.4168C8.94004 13.9145 8.28761 13.7329 7.97821 13.1679C7.57464 12.4415 7.78315 11.7689 7.97148 11.0761C8.01857 10.908 8.08583 10.7465 8.16654 10.538C7.69571 10.8407 7.25852 11.1097 6.8415 11.4057C6.31014 11.7891 5.71824 11.8698 5.08599 11.8093C4.72278 11.7689 4.37302 11.1703 4.56808 10.8474C5.01873 10.1076 5.44247 9.34751 6.27651 8.93049C6.82132 8.65472 7.2787 8.23097 7.82351 7.93502C7.8975 7.89467 7.96476 7.82068 7.98494 7.70634C7.66881 7.6458 7.34596 7.63235 7.02983 7.6458C6.76751 7.65253 6.51865 7.60544 6.26305 7.55836C6.16889 7.54491 6.04109 7.53818 6.00746 7.42384C5.9402 7.20188 5.77877 7.0539 5.65098 6.87903C5.48955 6.65706 5.66443 6.41493 6.00074 6.37457C6.80114 6.2804 7.59482 6.18624 8.42886 6.14588C8.32124 5.75577 8.12619 5.41274 7.95131 5.0697C7.46703 4.10115 7.07691 3.10568 6.83477 2.04968C6.78769 1.86135 6.75406 1.62594 6.95584 1.5385C7.1509 1.45779 7.35268 1.57213 7.50738 1.74028C8.35487 2.66849 9.06784 3.69758 9.71355 4.76703C9.7539 4.83429 9.78753 4.90828 9.90188 4.94863C10.1037 4.31638 10.2718 3.67068 10.5274 3.06533C10.7157 2.62813 10.8032 2.13712 11.2336 1.80754C11.496 1.61249 11.5632 1.23583 11.7045 0.933151C11.8323 0.657381 11.9802 0.395063 12.1888 0.173102C12.3233 0.0318537 12.4847 -0.0421335 12.673 0.0251275C12.8681 0.0923885 12.8883 0.287446 12.8883 0.442146C12.8815 1.1013 12.7806 1.75374 12.6058 2.38599C12.5049 2.74247 12.3905 3.0855 12.3704 3.45544C12.3435 3.89264 12.2157 4.30293 12.0408 4.74013C12.2426 4.74685 12.3569 4.63923 12.478 4.55852C13.5272 3.86573 14.442 3.01824 15.3567 2.16403C15.7267 1.821 16.1572 1.55195 16.5943 1.31654C16.702 1.256 16.8298 1.11476 16.9508 1.24255C17.0517 1.34344 17.045 1.5116 17.0517 1.6663C17.1123 2.4398 16.5069 2.877 16.1504 3.42854C15.7536 4.04734 15.3433 4.65941 14.859 5.2244C14.2806 5.89701 13.5609 6.42165 12.9623 7.14807C13.7896 7.2086 14.5765 7.4642 15.4038 7.43057C15.5787 7.56509 15.915 7.43729 15.9621 7.8005C15.9823 7.9552 15.9621 8.00229 15.8141 8.04937C15.5182 8.15026 15.2424 7.98211 14.9532 8.02919C14.7581 7.91484 14.6236 8.14353 14.4487 8.12335C13.7358 8.13681 13.0228 8.25788 12.3098 8.21752C12.1551 8.21079 12.108 8.28478 12.1484 8.42603C12.1888 8.58073 12.256 8.72198 12.3233 8.86323C12.5049 9.24661 12.6663 9.64345 12.7403 10.0605C12.8345 10.7062 12.8143 11.3519 12.8076 11.9976C12.8076 12.1657 12.7605 12.3339 12.5721 12.4012C12.4107 12.4617 12.2762 12.4213 12.182 12.2599Z" fill="#1B161C"/>
</svg>
